<svg width="24" height="24" xmlns="http://www.w3.org/2000/svg" xml:space="preserve" version="1.1">

 <g>
  <title>Layer 1</title>
  <g id="svg_2">
   <path id="svg_3" d="m22.77092,19.61573l0,0l0,-18.92709c0,-0.23659 -0.17235,-0.39431 -0.43087,-0.39431l-19.38916,0c-0.25852,0 -0.43087,0.15773 -0.43087,0.39431l0,5.5204l0.86174,0l0,-5.12609l18.52742,0l0,18.13846l-3.87783,0c-0.25852,0 -0.43087,0.15773 -0.43087,0.39431l0,3.54883l-14.21872,0l0,-5.91472l-0.86174,0l0,6.30903c0,0.23659 0.17235,0.39431 0.43087,0.39431l15.08046,0c0.12926,0 0.21544,-0.03943 0.30161,-0.11829l4.3087,-3.94314c0.04309,-0.03943 0.04309,-0.07886 0.08617,-0.11829l0,-0.03943c0.04309,-0.03943 0.04309,-0.07886 0.04309,-0.11829zm-4.3087,0.39431l2.84374,0l-1.42187,1.30124l-1.42187,1.30124l0,-2.60248l0,0z"/>
   <path id="svg_4" d="m5.53611,15.27827l2.58522,0l1.72348,0l0,-0.78863l-1.29261,0l0,-7.49197c0,-0.23659 -0.17235,-0.39431 -0.43087,-0.39431l-2.58522,0c-0.25852,0 -0.43087,0.15773 -0.43087,0.39431l0,2.36589l-2.15435,0c-0.25852,0 -0.43087,0.15773 -0.43087,0.39431l0,1.57726l-2.15435,0c-0.25852,0 -0.43087,0.15773 -0.43087,0.39431l0,3.15452c0,0.23659 0.17235,0.39431 0.43087,0.39431l2.58522,0l2.58522,0zm0.43087,-7.88629l1.72348,0l0,7.09766l-1.72348,0l0,-4.73177l0,-2.36589zm-2.58522,2.7602l1.72348,0l0,4.33746l-1.72348,0l0,-2.7602l0,-1.57726zm-2.58522,1.97157l1.72348,0l0,2.36589l-1.72348,0l0,-2.36589z"/>
   <path id="svg_5" d="m20.1857,9.75787l0,-6.70334c0,-0.23659 -0.17235,-0.39431 -0.43087,-0.39431l-9.04827,0c-0.25852,0 -0.43087,0.15773 -0.43087,0.39431l0,6.70334c0,0.23659 0.17235,0.39431 0.43087,0.39431l9.04827,0c0.25852,0 0.43087,-0.15773 0.43087,-0.39431zm-0.86174,-4.73177l-5.17044,0l0,-1.57726l5.17044,0l0,1.57726zm-6.03218,-1.57726l0,1.57726l-2.15435,0c0,-0.6309 0,-1.57726 0,-1.57726l2.15435,0zm-2.15435,2.36589l2.15435,0l0,3.54883l-2.15435,0c0,0 0,-1.85328 0,-3.54883zm3.01609,3.54883l0,-3.54883l5.17044,0l0,3.54883l-5.17044,0z"/>
   <rect id="svg_6" height="0.78863" width="9.04827" y="11.33513" x="10.70655"/>
   <rect id="svg_7" height="0.78863" width="9.04827" y="13.3067" x="10.70655"/>
   <rect id="svg_8" height="0.78863" width="9.04827" y="15.27827" x="10.70655"/>
   <rect id="svg_9" height="0.78863" width="2.58522" y="2.66021" x="4.67437"/>
   <rect id="svg_10" height="0.78863" width="3.87783" y="4.63178" x="4.67437"/>
   <rect id="svg_11" height="0.78863" width="3.01609" y="17.24984" x="4.67437"/>
   <rect id="svg_12" height="0.78863" width="3.01609" y="17.24984" x="8.98307"/>
   <rect id="svg_13" height="0.78863" width="3.01609" y="17.24984" x="13.29177"/>
   <rect id="svg_14" height="0.78863" width="3.01609" y="19.22141" x="4.67437"/>
   <rect id="svg_15" height="0.78863" width="3.01609" y="19.22141" x="8.98307"/>
   <rect id="svg_16" height="0.78863" width="3.01609" y="19.22141" x="13.29177"/>
   <rect id="svg_17" height="0.78863" width="3.01609" y="21.19299" x="4.67437"/>
   <rect id="svg_18" height="0.78863" width="3.01609" y="21.19299" x="8.98307"/>
   <rect id="svg_19" height="0.78863" width="3.01609" y="21.19299" x="13.29177"/>
  </g>
  <g id="svg_20"/>
  <g id="svg_21"/>
  <g id="svg_22"/>
  <g id="svg_23"/>
  <g id="svg_24"/>
  <g id="svg_25"/>
  <g id="svg_26"/>
  <g id="svg_27"/>
  <g id="svg_28"/>
  <g id="svg_29"/>
  <g id="svg_30"/>
  <g id="svg_31"/>
  <g id="svg_32"/>
  <g id="svg_33"/>
  <g id="svg_34"/>
 </g>
</svg>